<svg width="120" height="30" viewBox="0 0 120 30" fill="none" xmlns="http://www.w3.org/2000/svg">
<mask id="mask0_6_4" style="mask-type:alpha" maskUnits="userSpaceOnUse" x="0" y="0" width="121" height="31">
<path d="M101.087 30.0004H101.712V27.1073H101.723L102.762 30.0004H103.303L104.342 27.1073H104.353V30.0004H104.978V26.2516H104.064L103.056 29.1866H103.045L102.011 26.2516H101.087V30.0004H101.087ZM97.6277 26.8185H98.8139V30.0004H99.4702V26.8185H100.662V26.2516H97.6276V26.8185H97.6277ZM90.0002 30.0004L120 0.0004H101.944L71.9452 30.0004H90.0012H90.0002ZM85.699 13.0654H49.382C38.314 13.0654 36.377 13.6523 31.636 18.3929C27.2022 22.8267 20 30.0009 20 30.0009H35.732L39.4851 26.2478C41.9526 23.7803 43.2251 23.5247 48.4063 23.5247H75.2403L85.6983 13.0657L85.699 13.0654ZM31.152 16.2535C27.8776 19.3429 20.753 26.2635 16.913 30.0005H0C0 30.0005 13.552 16.4875 21.085 9.0725C28.8456 1.685 32.714 0 46.949 0H98.765L87.546 11.219H48.002C38 11.219 35.753 11.9121 31.153 16.2534L31.152 16.2535Z" fill="white"/>
</mask>
<g mask="url(#mask0_6_4)">
<path d="M101.087 30.0004H101.712V27.1073H101.723L102.762 30.0004H103.303L104.342 27.1073H104.353V30.0004H104.978V26.2516H104.064L103.056 29.1866H103.045L102.011 26.2516H101.087V30.0004H101.087ZM97.6277 26.8185H98.8139V30.0004H99.4702V26.8185H100.662V26.2516H97.6276V26.8185H97.6277ZM90.0002 30.0004L120 0.0004H101.944L71.9452 30.0004H90.0012H90.0002ZM85.699 13.0654H49.382C38.314 13.0654 36.377 13.6523 31.636 18.3929C27.2022 22.8267 20 30.0009 20 30.0009H35.732L39.4851 26.2478C41.9526 23.7803 43.2251 23.5247 48.4063 23.5247H75.2403L85.6983 13.0657L85.699 13.0654ZM31.152 16.2535C27.8776 19.3429 20.753 26.2635 16.913 30.0005H0C0 30.0005 13.552 16.4875 21.085 9.0725C28.8456 1.685 32.714 0 46.949 0H98.765L87.546 11.219H48.002C38 11.219 35.753 11.9121 31.153 16.2534L31.152 16.2535Z" fill="white"/>
</g>
</svg>
